<?xml version="1.0" encoding="utf-8"?>
<!-- Generator: Adobe Illustrator 16.0.0, SVG Export Plug-In . SVG Version: 6.00 Build 0)  -->
<!DOCTYPE svg PUBLIC "-//W3C//DTD SVG 1.1//EN" "http://www.w3.org/Graphics/SVG/1.1/DTD/svg11.dtd">
<svg version="1.1" id="Lager_1" xmlns="http://www.w3.org/2000/svg" xmlns:xlink="http://www.w3.org/1999/xlink" x="0px" y="0px"
	 width="850.457px" height="464.977px" viewBox="0 0 850.457 464.977" enable-background="new 0 0 850.457 464.977"
	 xml:space="preserve">
<path fill="#00B822" d="M744.844,347.03c19.459-8.875,39.571-18.057,59.475-26.906l40.377-17.945l-37.484-42.178
	C699.827,139.067,585.293,5.594,419.959,5.594c-8.144,0-16.425,0.343-24.599,1.029C257.729,18.094,109.886,118.78,18.709,263.144
	L4.557,285.56l19.214,18.256C136.551,410.946,251.755,463.034,375.97,463.034h0.007C505.761,463.034,618.211,404.845,744.844,347.03
	 M400.72,71.006c6.399-0.533,12.878-0.806,19.239-0.806c126.664,0,224.709,104.814,317.871,209.027
	c-6.657,3.029-13.265,6.049-19.814,9.041C597.953,343.071,491.718,398.431,375.97,398.431c-101.228,0-193.238-39.242-287.74-123.113
	C168.605,161.116,291.397,80.112,400.72,71.006"/>
</svg>
